/* XPM */
static char * guitareDeJPcoucheeDroitefavicon_xpm[] = {
"16 7 36 1",
" 	c None",
".	c #2D0E00",
"+	c #7D4400",
"@	c #612800",
"#	c #380C00",
"$	c #331300",
"%	c #603200",
"&	c #814100",
"*	c #7E3600",
"=	c #813000",
"-	c #A64900",
";	c #762500",
">	c #050300",
",	c #201000",
"'	c #6C3A00",
")	c #753F00",
"!	c #824100",
"~	c #3D1F00",
"{	c #140B00",
"]	c #0E0800",
"^	c #0A0400",
"/	c #0B0500",
"(	c #070500",
"_	c #0B0600",
":	c #2C0E00",
"<	c #592D00",
"[	c #6E3A00",
"}	c #2B1800",
"|	c #170B00",
"1	c #331B00",
"2	c #280B00",
"3	c #552C00",
"4	c #512900",
"5	c #341600",
"6	c #562800",
"7	c #421E01",
"                ",
" .+@   #        ",
" $%&*=-;        ",
" >,')!~{]^//(/_ ",
" :<[}|1         ",
" 2345 67        ",
"                "};
