/* XPM */
static char * guitareDeJPagauchefavicon_xpm[] = {
"16 7 35 1",
" 	c None",
".	c #462100",
"+	c #4C2000",
"@	c #391900",
"#	c #552B00",
"$	c #512900",
"%	c #2D0E00",
"&	c #371D00",
"*	c #180B00",
"=	c #271500",
"-	c #763E00",
";	c #532900",
">	c #280C00",
",	c #0D0800",
"'	c #0B0600",
")	c #080600",
"!	c #0C0500",
"~	c #0B0500",
"{	c #130900",
"]	c #331C00",
"^	c #7F3F00",
"/	c #6E3A00",
"(	c #6D3B00",
"_	c #1E0F01",
":	c #040301",
"<	c #6D2200",
"[	c #A34900",
"}	c #7C2D00",
"|	c #833900",
"1	c #864400",
"2	c #603100",
"3	c #311200",
"4	c #320900",
"5	c #602700",
"6	c #764000",
"                ",
"        .+ @#$% ",
"         &*=-;> ",
" ,')!~!,{]^/(_: ",
"        <[}|123 ",
"           4563 ",
"                "};
